<mxfile host="app.diagrams.net" modified="2023-01-02T12:57:25.695Z" agent="5.0 (Windows NT 10.0; Win64; x64) AppleWebKit/537.36 (KHTML, like Gecko) Chrome/108.0.0.0 Safari/537.36 Edg/108.0.1462.54" etag="Zmoq1Ahox_taG0wj112B" version="17.4.0" type="github">
  <diagram id="6a731a19-8d31-9384-78a2-239565b7b9f0" name="Page-1">
    <mxGraphModel dx="1442" dy="1366" grid="1" gridSize="10" guides="1" tooltips="1" connect="1" arrows="1" fold="1" page="1" pageScale="1" pageWidth="1169" pageHeight="827" background="none" math="0" shadow="0">
      <root>
        <mxCell id="0" />
        <mxCell id="1" parent="0" />
        <mxCell id="2" value="&lt;b&gt;SuricataMain()&lt;/b&gt;" style="shape=mxgraph.flowchart.terminator;strokeWidth=2;gradientColor=none;gradientDirection=north;fontStyle=0;html=1;" parent="1" vertex="1">
          <mxGeometry x="261.5" width="190" height="50" as="geometry" />
        </mxCell>
        <mxCell id="3" value="Init variable, module.&lt;br&gt;(SCInstanceInit(), &lt;br&gt;RunModeRegisterRunModes(),&lt;br&gt;ConfInit(), ...)" style="shape=mxgraph.flowchart.data;strokeWidth=2;gradientColor=none;gradientDirection=north;fontStyle=0;html=1;" parent="1" vertex="1">
          <mxGeometry x="230" y="100" width="213.75" height="90" as="geometry" />
        </mxCell>
        <mxCell id="7" style="fontStyle=1;strokeColor=#003366;strokeWidth=1;html=1;" parent="1" source="2" edge="1">
          <mxGeometry relative="1" as="geometry">
            <mxPoint x="357" y="100" as="targetPoint" />
          </mxGeometry>
        </mxCell>
        <mxCell id="8" style="fontStyle=1;strokeColor=#003366;strokeWidth=1;html=1;entryX=0.542;entryY=0.013;entryDx=0;entryDy=0;entryPerimeter=0;" parent="1" source="3" target="99E2ouz_DKc2y8DRvtOT-57" edge="1">
          <mxGeometry relative="1" as="geometry">
            <mxPoint x="330.37037037037044" y="250" as="targetPoint" />
          </mxGeometry>
        </mxCell>
        <mxCell id="40" value="end" style="shape=mxgraph.flowchart.terminator;strokeWidth=2;gradientColor=none;gradientDirection=north;fontStyle=0;html=1;" parent="1" vertex="1">
          <mxGeometry x="271" y="1360" width="156.25" height="60" as="geometry" />
        </mxCell>
        <mxCell id="99E2ouz_DKc2y8DRvtOT-57" value="&lt;b&gt;ParseCommandLine()&lt;br&gt;&lt;/b&gt;Parsing exec command to set&amp;nbsp;&lt;br&gt;&amp;nbsp;SCInstance var&#39;s fields&lt;br&gt;(run_mode, pcap_dev, ...)" style="shape=mxgraph.flowchart.data;strokeWidth=2;gradientColor=none;gradientDirection=north;fontStyle=0;html=1;" parent="1" vertex="1">
          <mxGeometry x="219.5" y="230" width="220" height="90" as="geometry" />
        </mxCell>
        <mxCell id="99E2ouz_DKc2y8DRvtOT-61" style="fontStyle=1;strokeColor=#003366;strokeWidth=1;html=1;exitX=0.5;exitY=1;exitDx=0;exitDy=0;exitPerimeter=0;" parent="1" source="99E2ouz_DKc2y8DRvtOT-57" target="99E2ouz_DKc2y8DRvtOT-62" edge="1">
          <mxGeometry relative="1" as="geometry">
            <mxPoint x="355" y="400" as="sourcePoint" />
            <mxPoint x="330.37037037037044" y="430" as="targetPoint" />
          </mxGeometry>
        </mxCell>
        <mxCell id="99E2ouz_DKc2y8DRvtOT-62" value="&lt;b&gt;StartInternalRunMode()&lt;/b&gt;&lt;br&gt;Run internal functionals&amp;nbsp;&lt;br&gt;(print list keyword, app layers,&lt;br&gt;version, ...)" style="shape=mxgraph.flowchart.data;strokeWidth=2;gradientColor=none;gradientDirection=north;fontStyle=0;html=1;" parent="1" vertex="1">
          <mxGeometry x="230" y="369" width="209.5" height="90" as="geometry" />
        </mxCell>
        <mxCell id="99E2ouz_DKc2y8DRvtOT-64" style="fontStyle=1;strokeColor=#003366;strokeWidth=1;html=1;exitX=0.5;exitY=1;exitDx=0;exitDy=0;exitPerimeter=0;" parent="1" target="99E2ouz_DKc2y8DRvtOT-65" edge="1">
          <mxGeometry relative="1" as="geometry">
            <mxPoint x="329.5" y="459" as="sourcePoint" />
            <mxPoint x="330.37037037037044" y="569" as="targetPoint" />
          </mxGeometry>
        </mxCell>
        <mxCell id="99E2ouz_DKc2y8DRvtOT-65" value="&lt;b&gt;GlobalsInitPreConfig()&lt;br&gt;&lt;/b&gt;Init global vars&amp;nbsp;&lt;br&gt;(TimeInit(),&amp;nbsp;...)" style="shape=mxgraph.flowchart.data;strokeWidth=2;gradientColor=none;gradientDirection=north;fontStyle=0;html=1;" parent="1" vertex="1">
          <mxGeometry x="230" y="508" width="209.5" height="90" as="geometry" />
        </mxCell>
        <mxCell id="99E2ouz_DKc2y8DRvtOT-66" style="fontStyle=1;strokeColor=#003366;strokeWidth=1;html=1;exitX=0.5;exitY=1;exitDx=0;exitDy=0;exitPerimeter=0;" parent="1" target="99E2ouz_DKc2y8DRvtOT-67" edge="1">
          <mxGeometry relative="1" as="geometry">
            <mxPoint x="333.75" y="598" as="sourcePoint" />
            <mxPoint x="334.62037037037044" y="708" as="targetPoint" />
          </mxGeometry>
        </mxCell>
        <mxCell id="99E2ouz_DKc2y8DRvtOT-67" value="&lt;b&gt;LoadYamlConfig()&lt;br&gt;&lt;/b&gt;&lt;b&gt;PostConfLoadedSetup()&lt;/b&gt;&lt;br&gt;Load yaml config and&lt;br&gt;init/config main modules&lt;br&gt;(logging, capture, decode,&lt;br&gt;&amp;nbsp;detect, stats, ,..)" style="shape=mxgraph.flowchart.data;strokeWidth=2;gradientColor=none;gradientDirection=north;fontStyle=0;html=1;" parent="1" vertex="1">
          <mxGeometry x="234.25" y="647" width="209.5" height="90" as="geometry" />
        </mxCell>
        <mxCell id="99E2ouz_DKc2y8DRvtOT-68" style="fontStyle=1;strokeColor=#003366;strokeWidth=1;html=1;exitX=0.5;exitY=1;exitDx=0;exitDy=0;exitPerimeter=0;" parent="1" target="99E2ouz_DKc2y8DRvtOT-69" edge="1">
          <mxGeometry relative="1" as="geometry">
            <mxPoint x="333.75" y="737" as="sourcePoint" />
            <mxPoint x="334.62037037037044" y="847" as="targetPoint" />
          </mxGeometry>
        </mxCell>
        <mxCell id="99E2ouz_DKc2y8DRvtOT-69" value="&lt;b&gt;&amp;nbsp; &amp;nbsp; &amp;nbsp;SCDropMainThreadCaps()&lt;br&gt;&amp;nbsp; &amp;nbsp; PreRunPostPrivsDropInit()&lt;/b&gt;&lt;br&gt;Reset permissions of main&lt;br&gt;thread then set uid/gid by&amp;nbsp;&lt;br&gt;user setting.&amp;nbsp;&amp;nbsp;" style="shape=mxgraph.flowchart.data;strokeWidth=2;gradientColor=none;gradientDirection=north;fontStyle=0;html=1;" parent="1" vertex="1">
          <mxGeometry x="234.25" y="786" width="209.5" height="90" as="geometry" />
        </mxCell>
        <mxCell id="99E2ouz_DKc2y8DRvtOT-70" style="fontStyle=1;strokeColor=#003366;strokeWidth=1;html=1;exitX=0.5;exitY=1;exitDx=0;exitDy=0;exitPerimeter=0;" parent="1" target="99E2ouz_DKc2y8DRvtOT-71" edge="1">
          <mxGeometry relative="1" as="geometry">
            <mxPoint x="333.75" y="876" as="sourcePoint" />
            <mxPoint x="334.62037037037044" y="986" as="targetPoint" />
          </mxGeometry>
        </mxCell>
        <mxCell id="99E2ouz_DKc2y8DRvtOT-71" value="&lt;b&gt;RunModeDispatch()&lt;br&gt;&lt;/b&gt;From run mode and run mode&amp;nbsp;&lt;br&gt;type, spawn all sub-thread.&amp;nbsp;" style="shape=mxgraph.flowchart.data;strokeWidth=2;gradientColor=none;gradientDirection=north;fontStyle=0;html=1;" parent="1" vertex="1">
          <mxGeometry x="234.25" y="925" width="209.5" height="90" as="geometry" />
        </mxCell>
        <mxCell id="99E2ouz_DKc2y8DRvtOT-72" style="fontStyle=1;strokeColor=#003366;strokeWidth=1;html=1;exitX=0.5;exitY=1;exitDx=0;exitDy=0;exitPerimeter=0;" parent="1" target="99E2ouz_DKc2y8DRvtOT-73" edge="1">
          <mxGeometry relative="1" as="geometry">
            <mxPoint x="333.75" y="1015" as="sourcePoint" />
            <mxPoint x="334.62037037037044" y="1125" as="targetPoint" />
          </mxGeometry>
        </mxCell>
        <mxCell id="99E2ouz_DKc2y8DRvtOT-73" value="&lt;b&gt;SuricataMainLoop(()&lt;/b&gt;&lt;br&gt;Handle signal: KILL/EXIT,&lt;br&gt;SIGHUP (log output),&amp;nbsp;&lt;br&gt;SIGUSR2 (rule reload).&amp;nbsp;" style="shape=mxgraph.flowchart.data;strokeWidth=2;gradientColor=none;gradientDirection=north;fontStyle=0;html=1;" parent="1" vertex="1">
          <mxGeometry x="234.25" y="1064" width="209.5" height="90" as="geometry" />
        </mxCell>
        <mxCell id="99E2ouz_DKc2y8DRvtOT-75" style="fontStyle=1;strokeColor=#003366;strokeWidth=1;html=1;exitX=0.5;exitY=1;exitDx=0;exitDy=0;exitPerimeter=0;" parent="1" target="99E2ouz_DKc2y8DRvtOT-76" edge="1">
          <mxGeometry relative="1" as="geometry">
            <mxPoint x="341.5" y="1154" as="sourcePoint" />
            <mxPoint x="342.37037037037044" y="1264" as="targetPoint" />
          </mxGeometry>
        </mxCell>
        <mxCell id="99E2ouz_DKc2y8DRvtOT-79" style="edgeStyle=orthogonalEdgeStyle;rounded=0;orthogonalLoop=1;jettySize=auto;html=1;" parent="1" source="99E2ouz_DKc2y8DRvtOT-76" edge="1">
          <mxGeometry relative="1" as="geometry">
            <mxPoint x="347.75" y="1360" as="targetPoint" />
          </mxGeometry>
        </mxCell>
        <mxCell id="99E2ouz_DKc2y8DRvtOT-76" value="Kill sub-threads and free &lt;br&gt;located memory." style="shape=mxgraph.flowchart.data;strokeWidth=2;gradientColor=none;gradientDirection=north;fontStyle=0;html=1;" parent="1" vertex="1">
          <mxGeometry x="243" y="1203" width="209.5" height="90" as="geometry" />
        </mxCell>
      </root>
    </mxGraphModel>
  </diagram>
</mxfile>
